<?xml version="1.0" encoding="UTF-8" standalone="no"?>
<!-- Created with Pixodesk SVG (https://pixodesk.com) -->
<svg xmlns="http://www.w3.org/2000/svg" viewBox="0 0 100 32" text-rendering="geometricPrecision" shape-rendering="geometricPrecision" fill="none">
  <path fill="#1b1d1f" fill-rule="evenodd" d="M78.6955,1.104L0,1.104L0,31.104L78.6955,31.104L99.4048,16.104L78.6955,1.104zM35.28,14.0752C35.1578,14.0207,35.0374,13.9662,34.9175,13.9121C34.6147,13.7753,34.3166,13.6407,34.0098,13.5116C33.1733,13.1558,32.2646,12.8725,31.2223,12.7462C30.0718,12.606,28.9101,12.5552,27.7623,12.7493C26.1252,13.0249,24.9859,13.6255,24.2326,14.4618C23.6073,15.1579,23.4406,15.8956,23.6046,16.6625C23.7351,17.2631,24.0826,17.8206,24.719,18.315C25.6974,19.0742,27.0313,19.5131,28.6988,19.6286C30.1996,19.7333,31.6531,19.6286,33.0288,19.2621C33.4985,19.1366,33.4985,19.1343,33.4985,18.8453L33.4985,18.8401C33.4985,18.7697,33.4988,18.6995,33.4992,18.6294C33.4997,18.4894,33.5003,18.3491,33.4985,18.2087C33.4981,18.1805,33.4988,18.1564,33.4994,18.1359C33.5012,18.0774,33.5019,18.0474,33.4753,18.0322C33.4472,18.0161,33.3885,18.0165,33.2679,18.0173C33.2375,18.0175,33.2034,18.0177,33.165,18.0177L28.8017,18.0177C28.7627,18.0177,28.7281,18.018,28.6976,18.0182C28.5751,18.019,28.5156,18.0194,28.4872,18.0031C28.4603,17.9877,28.4615,17.9573,28.4637,17.8979C28.4644,17.8781,28.4653,17.8551,28.4653,17.8283C28.4635,17.1815,28.4641,16.5347,28.4648,15.8879C28.4651,15.5645,28.4653,15.241,28.4653,14.9176C28.4653,14.9059,28.466,14.894,28.4666,14.8821C28.4678,14.858,28.4691,14.8335,28.4653,14.8098C28.4571,14.7529,28.4931,14.7221,28.6044,14.7282C28.6471,14.7303,28.6911,14.7296,28.7345,14.7289C28.7562,14.7286,28.7776,14.7282,28.799,14.7282L39.8295,14.7282C39.9018,14.7282,39.9629,14.7359,39.9519,14.7867C39.9469,14.8173,39.9815,14.8379,40.0169,14.8589C40.06,14.8844,40.1041,14.9105,40.0797,14.9561C40.0585,14.9954,40.0639,15.0383,40.0693,15.0814C40.0716,15.1008,40.0741,15.1203,40.0741,15.1394L40.074,16.2449C40.0734,17.7187,40.0731,19.1932,40.0797,20.6666C40.0797,20.7867,40.0129,20.8622,39.8491,20.9377C37.7951,21.8848,35.4857,22.547,32.8732,22.875C31.328,23.0691,29.7633,23.123,28.1819,23.0521C26.3142,22.969,24.5384,22.7025,22.8987,22.1974C19.8888,21.2703,17.9933,19.8627,17.1207,18.0254C16.7371,17.2138,16.6204,16.3868,16.7427,15.5521C17.2013,12.4567,21.1087,10.0419,26.3449,9.3704C27.84,9.1779,29.3493,9.1502,30.8721,9.2072C32.0395,9.2518,33.1873,9.3535,34.3101,9.5383C35.9915,9.817,37.4756,10.2975,38.8262,10.9135C38.9847,10.9859,39.1403,11.0583,39.2932,11.1322C39.4878,11.2246,39.4933,11.277,39.3237,11.3909C38.4733,11.9608,37.6228,12.529,36.7697,13.0973C36.3443,13.3822,35.9191,13.6671,35.4913,13.9505C35.4801,13.9584,35.4694,13.9665,35.4582,13.9748C35.4112,14.0102,35.3611,14.0478,35.28,14.0752zM56.9879,9.1809C60.1534,9.1948,63.216,9.8154,65.7869,11.1183C67.7824,12.1316,69.0052,13.3945,69.4943,14.8683C70.039,16.5084,69.6472,18.0793,68.1853,19.5438C66.451,21.281,63.8053,22.3945,60.3535,22.8981C57.3825,23.3323,54.4365,23.2446,51.5934,22.587C47.8916,21.7292,45.4988,20.1891,44.3759,18.0731C43.3726,16.1804,43.7366,14.3401,45.532,12.6244C47.2801,10.952,49.912,9.9047,53.2749,9.4165C54.4339,9.2487,55.526,9.1825,56.9879,9.1809zM56.2375,12.703C54.5004,12.7246,52.7107,13.2759,51.5907,14.4263C50.8292,15.2071,50.6513,16.0495,50.9404,16.9196C51.1682,17.6065,51.7047,18.2148,52.594,18.7138C53.9808,19.493,55.6789,19.7995,57.6243,19.6748C59.6365,19.5469,61.1317,18.974,62.0905,17.9899C62.9048,17.1522,63.0744,16.2559,62.6936,15.3334C62.0656,13.8026,59.7616,12.6984,56.2375,12.703z"/>
</svg>